<?xml version="1.0" encoding="utf-8"?>
<!-- Generator: Adobe Illustrator 25.2.3, SVG Export Plug-In . SVG Version: 6.00 Build 0)  -->
<svg version="1.1" id="Слой_1" xmlns="http://www.w3.org/2000/svg" xmlns:xlink="http://www.w3.org/1999/xlink" x="0px" y="0px"
	 viewBox="0 0 100 94" style="enable-background:new 0 0 100 94;" xml:space="preserve">
<style type="text/css">
	.st0{fill-rule:evenodd;clip-rule:evenodd;fill:#CED0D6;}
	.st1{fill:#CED0D6;}
</style>
<path class="st0" d="M80.5,0H3.9C1.7,0,0,1.7,0,3.9v68.9c0,2.2,1.7,3.9,3.9,3.9h41.7c1.4,0,2.4-1.4,2-2.8c-0.6-2.3-0.9-4.8-0.9-7.3
	c0-15.7,12.7-28.4,28.4-28.4c2.3,0,4.5,0.3,6.6,0.8c1.3,0.3,2.7-0.6,2.7-2V3.9C84.4,1.7,82.6,0,80.5,0z M32.5,14.3H39v5.1l-2.1,15.2
	h-2.4l-2.1-15.2V14.3z M14.6,14.3h6.5v5.1l-2.1,15.2h-2.4l-2.1-15.2V14.3z M21.4,42.6c0,1.1-0.3,2-0.9,2.7c-0.6,0.7-1.5,1.1-2.7,1.1
	c-1.2,0-2.1-0.4-2.7-1.1c-0.6-0.8-0.9-1.7-0.9-2.7v-0.2c0-1.1,0.3-2,0.9-2.7c0.6-0.8,1.5-1.1,2.7-1.1c1.2,0,2.1,0.4,2.7,1.1
	c0.6,0.7,0.9,1.6,0.9,2.7V42.6z M39.3,42.6c0,1.1-0.3,2-0.9,2.7c-0.6,0.7-1.5,1.1-2.7,1.1c-1.2,0-2.1-0.4-2.7-1.1
	c-0.6-0.8-0.9-1.7-0.9-2.7v-0.2c0-1.1,0.3-2,0.9-2.7c0.6-0.8,1.5-1.1,2.7-1.1c1.2,0,2.1,0.4,2.7,1.1c0.6,0.7,0.9,1.6,0.9,2.7V42.6z"
	/>
<path class="st1" d="M98.9,86.9l-1-1l-2.7-2.7l-1.5-1.5c-0.7-0.7-0.8-1.8-0.2-2.7c2.1-3.3,3.4-7.3,3.4-11.5c0-8.6-5.1-16-12.5-19.4
	c-1.2-0.6-2.5-1-3.8-1.3c-1.2-0.3-2.5-0.5-3.8-0.6c-0.4,0-0.8,0-1.3,0c-6.6,0-12.5,3-16.4,7.7c-1.9,2.2-3.3,4.8-4.1,7.7
	c-0.6,1.9-0.9,4-0.9,6.1c0,0.5,0,1.1,0.1,1.6c0.1,1.3,0.3,2.6,0.6,3.8c0.3,1.3,0.8,2.6,1.4,3.8c3.5,7.2,10.8,12.1,19.3,12.1
	c3.6,0,7-0.9,10-2.5c0.8-0.4,1.8-0.3,2.5,0.3l1.6,1.6l2.8,2.8l1.2,1.2c0.7,0.7,1.7,1.1,2.7,1.1c1,0,2-0.4,2.7-1.1
	C100.4,90.8,100.4,88.4,98.9,86.9z M75.4,81.2c-4,0-7.6-1.7-10.1-4.5c-1-1.1-1.9-2.4-2.5-3.8c-0.5-1.2-0.9-2.5-1-3.8
	c-0.1-0.5-0.1-1.1-0.1-1.6c0-7.6,6.2-13.7,13.7-13.7c0.4,0,0.9,0,1.3,0.1c1.3,0.1,2.6,0.4,3.8,0.9c1.4,0.6,2.7,1.4,3.8,2.3
	c2.9,2.5,4.8,6.3,4.8,10.4C89.1,75,83,81.2,75.4,81.2z"/>
</svg>
