<svg xmlns="http://www.w3.org/2000/svg" viewBox="0 0 493.69 486.02"><defs><style>.a{fill:#ced0d6;}</style></defs><path class="a" d="M344.77,113.24c0-8.46-8.06-15.32-18-15.29l-60.56.19a70,70,0,0,0-9-49.24C241.1,21.72,208.87,4.91,173.15,5c-52,.16-94.21,36.4-94.18,80.77a68.75,68.75,0,0,0,1.21,12.93l-60.57.19c-9.92,0-18,6.93-18,15.41l0,72.49c0,5.29,3.18,10.19,8.42,13a20.68,20.68,0,0,0,17.37.77,66.25,66.25,0,0,1,25.32-5c22.09-.07,42,10.34,52,27.15a43.4,43.4,0,0,1,6.26,22.45c0,13.29-6,25.81-17,35.24s-25.63,14.66-41.2,14.71a66,66,0,0,1-25.32-4.85,20.63,20.63,0,0,0-17.36.88c-5.24,2.82-8.42,7.74-8.42,13l0,72.49a13.55,13.55,0,0,0,1.94,6.93,15.53,15.53,0,0,0,3.33,3.91A19.6,19.6,0,0,0,19.77,392l121.1-.38a54.53,54.53,0,0,1,9.5-30.73l-112.64.35,0-36.37a113.18,113.18,0,0,0,15.15,1c25.18-.08,48.83-8.52,66.62-23.78s27.58-35.49,27.57-57a71.21,71.21,0,0,0-10.16-36.31c-16.16-27.17-48.4-44-84.11-43.87a111.77,111.77,0,0,0-15.16,1.08l0-36.37,66.92-.21a18.94,18.94,0,0,0,15.22-7.24,13.44,13.44,0,0,0,1-14.84,43.38,43.38,0,0,1-5.78-21.6c0-27.44,26.12-49.85,58.25-49.95,22.1-.07,42,10.34,52.05,27.16a43.43,43.43,0,0,1,.51,44.06,13.46,13.46,0,0,0,1,14.84c3.29,4.46,9,7.16,15.23,7.14l66.91-.21.09,155.68,35.95-.36Z" transform="translate(-1.65 -5.02)"/><path class="a" d="M462.72,255.76,273.46,444.83,207,378.36a19.1,19.1,0,0,0-27,27l80.07,80.07a19.08,19.08,0,0,0,27,0L489.73,282.77a19.1,19.1,0,0,0-27-27Z" transform="translate(-1.65 -5.02)"/></svg>